<?xml version="1.0" encoding="UTF-8" standalone="no"?>
<!DOCTYPE svg PUBLIC "-//W3C//DTD SVG 1.1//EN" "http://www.w3.org/Graphics/SVG/1.1/DTD/svg11.dtd">
<svg width="100%" height="100%" viewBox="0 0 24 24" version="1.1" xmlns="http://www.w3.org/2000/svg" xmlns:xlink="http://www.w3.org/1999/xlink" xml:space="preserve" xmlns:serif="http://www.serif.com/" style="fill-rule:evenodd;clip-rule:evenodd;stroke-linejoin:round;stroke-miterlimit:2;">
    <rect x="0" y="0" width="24" height="24" style="fill:rgb(1,89,153);"/>
    <path d="M18,17.883L18,16L23,19L18,22L18,19.91C14.922,19.47 12.251,17.458 11.003,14.545L11,14.539L10.997,14.545C9.579,17.854 6.325,20 2.725,20L2,20L2,18L2.725,18C5.525,18 8.056,16.331 9.159,13.757L9.912,12L9.159,10.243C8.056,7.669 5.525,6 2.725,6L2,6L2,4L2.725,4C6.325,4 9.579,6.146 10.997,9.455L11,9.461L11.003,9.455C12.251,6.542 14.922,4.53 18,4.091L18,2L23,5L18,8L18,6.117C15.727,6.538 13.774,8.067 12.841,10.243L12.088,12L12.841,13.757C13.774,15.933 15.727,17.462 18,17.883Z" style="fill:white;fill-rule:nonzero;"/>
</svg>
